<svg width="491" height="594" viewBox="0 0 491 594" fill="none" xmlns="http://www.w3.org/2000/svg">
<path d="M259.032 293.432C269.053 305.957 280.181 319.705 287.988 329.318C296.669 303.219 285.075 266.751 272.141 239.488C269.053 256.44 264.742 274.383 259.032 293.432Z" fill="#FFBF00"/>
<path d="M197.974 196.845C185.098 209.195 173.562 232.264 182.243 268.324C190.05 267.684 201.12 266.81 211.141 265.878C205.431 240.245 201.12 217.351 197.974 196.845Z" fill="#F2B046"/>
<path opacity="0.2" d="M225.706 325.298C153.694 48.8181 212.947 25.3412 235.319 15.9038C257.692 51.2066 316.886 143.017 244.816 336.308L225.706 325.298Z" fill="url(#paint0_linear_60_82)"/>
<path opacity="0.1" d="M246.914 309.394C174.902 32.9725 234.096 9.43737 256.527 0C278.899 35.3028 338.093 127.113 266.023 320.405L246.914 309.394Z" fill="url(#paint1_linear_60_82)"/>
<path opacity="0.15" d="M244.816 336.308C316.886 143.017 257.692 51.2066 235.319 15.9038V330.832L244.816 336.308Z" fill="url(#paint2_linear_60_82)"/>
<path opacity="0.1" d="M256.76 113.248C256.76 130.084 246.855 138.007 234.62 130.958C222.385 123.909 212.481 104.51 212.481 87.6744C212.481 70.8386 222.385 62.9158 234.62 69.9647C246.855 77.0136 256.76 96.4127 256.76 113.248Z" fill="white"/>
<path opacity="0.1" d="M252.39 398.875C247.322 390.602 244.875 380.116 242.719 370.912C240.214 360.309 238.116 351.28 232.873 349.008C226.872 346.386 224.192 353.028 220.405 362.232C218.191 367.65 215.569 374.058 211.724 379.942C207.587 375.572 203.217 371.961 198.615 369.339C179.33 358.212 163.25 367.824 159.463 390.777C156.841 388.796 154.219 386.99 151.539 385.418C120.602 367.591 95.5494 387.806 95.5494 430.682C95.5494 473.5 120.602 522.667 151.481 540.493C181.486 557.795 206.014 539.212 207.412 498.957C213.064 509.443 220.579 518.24 228.911 523.017C231.066 524.24 233.164 525.172 235.145 525.755C247.147 552.144 265.033 574.864 285.017 586.399C321.139 607.254 350.445 583.719 350.503 533.852C350.503 483.986 321.198 426.604 285.075 405.749C273.132 398.875 262.004 396.777 252.39 398.875Z" fill="url(#paint3_linear_60_82)"/>
<path opacity="0.3" d="M310.594 208.146L468.309 299.2L468.367 381.398L324.577 298.384L310.652 302.928L310.594 208.146Z" fill="url(#paint4_linear_60_82)"/>
<path d="M422.456 313.647V291.335L482 325.706V348.018L422.456 313.647Z" fill="#FFBF00"/>
<path opacity="0.1" d="M351.144 251.547L385.694 271.47V278.694L351.144 258.77V251.547Z" fill="white"/>
<path opacity="0.1" d="M351.202 265.994L413.542 301.996V309.22L351.202 273.218V265.994Z" fill="white"/>
<path opacity="0.15" d="M351.202 280.441L431.895 327.046V334.269L351.202 287.665V280.441Z" fill="white"/>
<path d="M342.638 254.168C342.638 260.926 338.618 264.13 333.665 261.275C328.713 258.421 324.693 250.615 324.693 243.857C324.693 237.099 328.713 233.895 333.665 236.75C338.676 239.604 342.638 247.411 342.638 254.168Z" fill="#FFBF00"/>
<path opacity="0.3" d="M174.552 92.0435L16.8373 1.04858L16.8955 83.2469L160.686 166.203L174.61 186.825L174.552 92.0435Z" fill="url(#paint5_linear_60_82)"/>
<path d="M0 33.0892V10.7773L59.5436 45.148V67.4598L0 33.0892Z" fill="#F2B046"/>
<path opacity="0.15" d="M134.002 88.6648L99.4531 68.7415V75.9651L134.002 95.8885V88.6648Z" fill="white"/>
<path opacity="0.15" d="M134.002 103.112L67.4091 64.6636V71.8872L134.002 110.336V103.112Z" fill="white"/>
<path opacity="0.15" d="M134.002 117.559L53.3096 70.9551V78.1788L134.002 124.783V117.559Z" fill="white"/>
<path d="M142.508 101.073C142.508 107.831 146.528 115.637 151.481 118.491C156.433 121.346 160.453 118.142 160.453 111.384C160.453 104.627 156.433 96.8204 151.481 93.9659C146.528 91.1696 142.508 94.3154 142.508 101.073Z" fill="#F2B046"/>
<path opacity="0.2" d="M153.578 179.776L59.3685 125.424V174.475L153.578 228.827V179.776Z" fill="url(#paint6_linear_60_82)"/>
<path opacity="0.15" d="M83.4891 151.115L115.766 169.756V175.64L83.4891 156.998V151.115Z" fill="white"/>
<path opacity="0.15" d="M83.4891 162.94L143.848 197.777V203.719L83.4891 168.882V162.94Z" fill="white"/>
<path d="M78.5366 152.862C78.5366 156.882 76.1479 158.804 73.1765 157.115C70.2051 155.425 67.8164 150.765 67.8164 146.687C67.8164 142.667 70.2051 140.745 73.1765 142.434C76.0896 144.182 78.5366 148.842 78.5366 152.862Z" fill="#F2B046"/>
<path opacity="0.2" d="M433.351 216.827L339.142 162.474V211.525L433.351 265.936V216.827Z" fill="url(#paint7_linear_60_82)"/>
<path opacity="0.15" d="M363.263 188.223L395.54 206.865V212.749L363.263 194.107V188.223Z" fill="white"/>
<path opacity="0.15" d="M363.321 200.049L423.68 234.886V240.828L363.321 205.991V200.049Z" fill="white"/>
<path d="M358.31 189.971C358.31 193.99 355.921 195.913 352.95 194.223C349.979 192.534 347.59 187.874 347.59 183.796C347.59 179.776 349.979 177.854 352.95 179.543C355.921 181.291 358.31 185.951 358.31 189.971Z" fill="#FFBF00"/>
<path d="M352.134 149.088L351.926 150.984L353.602 151.952L353.602 154.352L351.663 153.232L351.427 155.288L349.21 154.008L349.446 151.952L348.074 151.16L347.838 153.216L345.621 151.936L345.857 149.88L344.18 148.912L344.18 146.512L346.12 147.632L346.328 145.736L344.651 144.768L344.651 142.368L346.591 143.488L346.827 141.432L349.044 142.712L348.808 144.768L350.18 145.56L350.416 143.504L352.633 144.784L352.397 146.84L354.074 147.808L354.074 150.208L352.134 149.088ZM349.917 147.808L348.545 147.016L348.337 148.912L349.709 149.704L349.917 147.808ZM358.663 159.722C357.86 159.258 357.074 158.703 356.308 158.058C355.55 157.407 354.927 156.765 354.437 156.13L355.49 153.986C355.952 154.562 356.469 155.111 357.042 155.634C357.615 156.146 358.164 156.554 358.691 156.858C359.144 157.119 359.467 157.258 359.661 157.274C359.855 157.279 359.952 157.181 359.952 156.978C359.952 156.743 359.823 156.493 359.564 156.226C359.315 155.965 358.899 155.597 358.317 155.122C357.569 154.509 356.945 153.957 356.446 153.466C355.947 152.965 355.513 152.373 355.144 151.69C354.774 150.997 354.59 150.245 354.59 149.434C354.59 148.73 354.76 148.189 355.102 147.81C355.444 147.431 355.952 147.271 356.626 147.33C357.31 147.394 358.137 147.706 359.107 148.266C359.772 148.65 360.423 149.111 361.06 149.65C361.707 150.183 362.275 150.751 362.765 151.354L361.781 153.522C360.83 152.418 359.929 151.621 359.079 151.13C358.238 150.645 357.818 150.637 357.818 151.106C357.818 151.33 357.943 151.573 358.192 151.834C358.442 152.085 358.853 152.439 359.425 152.898C360.164 153.485 360.788 154.031 361.296 154.538C361.804 155.034 362.243 155.623 362.612 156.306C362.991 156.994 363.181 157.743 363.181 158.554C363.181 159.258 363.01 159.799 362.668 160.178C362.326 160.546 361.813 160.703 361.13 160.65C360.455 160.591 359.633 160.282 358.663 159.722ZM369.17 165.788C368.144 165.196 367.22 164.417 366.398 163.452C365.576 162.476 364.93 161.409 364.458 160.252C363.997 159.089 363.766 157.942 363.766 156.812C363.766 155.681 363.997 154.806 364.458 154.188C364.93 153.564 365.576 153.244 366.398 153.228C367.22 153.201 368.144 153.484 369.17 154.076C370.112 154.62 370.952 155.297 371.691 156.108C372.43 156.918 373.04 157.825 373.521 158.828L371.456 159.764C370.855 158.542 370.149 157.697 369.336 157.228C368.652 156.833 368.103 156.772 367.687 157.044C367.271 157.305 367.063 157.862 367.063 158.716C367.063 159.569 367.271 160.372 367.687 161.124C368.103 161.865 368.652 162.433 369.336 162.828C370.149 163.297 370.855 163.268 371.456 162.74L373.521 166.06C373.04 166.508 372.43 166.71 371.691 166.668C370.952 166.625 370.112 166.332 369.17 165.788ZM378.622 168.173L377.735 167.661L377.735 170.477L374.465 168.589L374.465 157.389L379.134 160.085C380.03 160.602 380.811 161.223 381.476 161.949C382.141 162.674 382.654 163.461 383.014 164.309C383.374 165.157 383.555 166.007 383.555 166.861C383.555 167.661 383.397 168.269 383.083 168.685C382.769 169.101 382.317 169.314 381.725 169.325L383.762 173.957L380.271 171.941L378.622 168.173ZM380.257 164.957C380.257 164.541 380.146 164.157 379.924 163.805C379.702 163.442 379.37 163.133 378.926 162.877L377.735 162.189L377.735 164.813L378.926 165.501C379.37 165.757 379.702 165.837 379.924 165.741C380.146 165.634 380.257 165.373 380.257 164.957ZM386.76 167.416L383.92 165.776L383.92 162.848L392.871 168.016L392.871 170.944L390.03 169.304L390.03 177.576L386.76 175.688L386.76 167.416ZM395.962 172.728L393.121 171.088L393.121 168.16L402.072 173.328L402.072 176.256L399.232 174.616L399.232 182.888L395.962 181L395.962 172.728ZM407.872 188.132C406.828 187.53 405.89 186.738 405.059 185.756C404.228 184.775 403.576 183.706 403.105 182.548C402.634 181.38 402.398 180.236 402.398 179.116C402.398 177.996 402.634 177.13 403.105 176.516C403.576 175.892 404.228 175.57 405.059 175.548C405.89 175.527 406.828 175.818 407.872 176.42C408.916 177.023 409.853 177.815 410.685 178.796C411.516 179.778 412.167 180.852 412.638 182.02C413.109 183.178 413.345 184.316 413.345 185.436C413.345 186.556 413.109 187.428 412.638 188.052C412.167 188.666 411.516 188.983 410.685 189.004C409.853 189.026 408.916 188.735 407.872 188.132ZM407.872 185.076C408.278 185.311 408.643 185.41 408.966 185.372C409.299 185.33 409.562 185.156 409.756 184.852C409.95 184.538 410.047 184.098 410.047 183.532C410.047 182.967 409.95 182.42 409.756 181.892C409.562 181.354 409.299 180.876 408.966 180.46C408.643 180.039 408.278 179.711 407.872 179.476C407.465 179.242 407.096 179.146 406.763 179.188C406.44 179.226 406.181 179.402 405.987 179.716C405.793 180.02 405.696 180.455 405.696 181.02C405.696 181.586 405.793 182.138 405.987 182.676C406.181 183.204 406.44 183.679 406.763 184.1C407.096 184.516 407.465 184.842 407.872 185.076ZM416.503 184.587L413.662 182.947L413.662 180.019L422.613 185.187L422.613 188.115L419.773 186.475L419.773 194.748L416.503 192.86L416.503 184.587ZM433.024 191.198L433.024 202.398L429.754 200.51L429.754 196.382L426.733 194.638L426.733 198.766L423.463 196.878L423.463 185.678L426.733 187.566L426.733 191.534L429.754 193.278L429.754 189.31L433.024 191.198ZM442.664 205.116L442.664 207.964L434.599 203.308L434.599 192.108L442.484 196.66L442.484 199.508L437.814 196.812L437.814 198.124L441.916 200.492L441.916 203.212L437.814 200.844L437.814 202.316L442.664 205.116ZM452.583 213.69L452.555 208.57L450.449 211.45L449.008 210.618L446.902 205.482L446.902 210.41L443.923 208.69L443.923 197.49L446.611 199.042L449.77 206.834L452.846 202.642L455.534 204.194L455.562 215.41L452.583 213.69ZM462.228 219.515C461.185 218.913 460.247 218.121 459.416 217.139C458.584 216.158 457.933 215.089 457.462 213.931C456.991 212.763 456.755 211.619 456.755 210.499C456.755 209.379 456.991 208.513 457.462 207.899C457.933 207.275 458.584 206.953 459.416 206.931C460.247 206.91 461.185 207.201 462.228 207.803C463.272 208.406 464.21 209.198 465.041 210.179C465.873 211.161 466.524 212.235 466.995 213.403C467.466 214.561 467.702 215.699 467.702 216.819C467.702 217.939 467.466 218.811 466.995 219.435C466.524 220.049 465.873 220.366 465.041 220.387C464.21 220.409 463.272 220.118 462.228 219.515ZM462.228 216.459C462.635 216.694 463 216.793 463.323 216.755C463.656 216.713 463.919 216.539 464.113 216.235C464.307 215.921 464.404 215.481 464.404 214.915C464.404 214.35 464.307 213.803 464.113 213.275C463.919 212.737 463.656 212.259 463.323 211.843C463 211.422 462.635 211.094 462.228 210.859C461.822 210.625 461.452 210.529 461.12 210.571C460.797 210.609 460.538 210.785 460.344 211.099C460.15 211.403 460.053 211.838 460.053 212.403C460.053 212.969 460.15 213.521 460.344 214.059C460.538 214.587 460.797 215.062 461.12 215.483C461.452 215.899 461.822 216.225 462.228 216.459ZM473.974 226.296C472.93 225.694 471.992 224.902 471.161 223.92C470.33 222.939 469.678 221.87 469.207 220.712C468.736 219.544 468.501 218.4 468.501 217.28C468.501 216.16 468.736 215.294 469.207 214.68C469.678 214.056 470.33 213.734 471.161 213.712C471.992 213.691 472.93 213.982 473.974 214.584C475.018 215.187 475.955 215.979 476.787 216.96C477.618 217.942 478.269 219.016 478.74 220.184C479.212 221.342 479.447 222.48 479.447 223.6C479.447 224.72 479.212 225.592 478.74 226.216C478.269 226.83 477.618 227.147 476.787 227.168C475.955 227.19 475.018 226.899 473.974 226.296ZM473.974 223.24C474.38 223.475 474.745 223.574 475.069 223.536C475.401 223.494 475.664 223.32 475.858 223.016C476.052 222.702 476.149 222.262 476.149 221.696C476.149 221.131 476.052 220.584 475.858 220.056C475.664 219.518 475.401 219.04 475.069 218.624C474.745 218.203 474.38 217.875 473.974 217.64C473.567 217.406 473.198 217.31 472.865 217.352C472.542 217.39 472.283 217.566 472.089 217.88C471.895 218.184 471.798 218.619 471.798 219.184C471.798 219.75 471.895 220.302 472.089 220.84C472.283 221.368 472.542 221.843 472.865 222.264C473.198 222.68 473.567 223.006 473.974 223.24ZM490.195 224.206L490.195 235.406L487.507 233.854L483.821 226.638L483.821 231.726L480.634 229.886L480.634 218.686L483.322 220.238L487.008 227.454L487.008 222.366L490.195 224.206Z" fill="#F0F1F5" fill-opacity="0.4"/>
<path d="M352.134 149.088L351.926 150.984L353.602 151.952L353.602 154.352L351.663 153.232L351.427 155.288L349.21 154.008L349.446 151.952L348.074 151.16L347.838 153.216L345.621 151.936L345.857 149.88L344.18 148.912L344.18 146.512L346.12 147.632L346.328 145.736L344.651 144.768L344.651 142.368L346.591 143.488L346.827 141.432L349.044 142.712L348.808 144.768L350.18 145.56L350.416 143.504L352.633 144.784L352.397 146.84L354.074 147.808L354.074 150.208L352.134 149.088ZM349.917 147.808L348.545 147.016L348.337 148.912L349.709 149.704L349.917 147.808ZM358.663 159.722C357.86 159.258 357.074 158.703 356.308 158.058C355.55 157.407 354.927 156.765 354.437 156.13L355.49 153.986C355.952 154.562 356.469 155.111 357.042 155.634C357.615 156.146 358.164 156.554 358.691 156.858C359.144 157.119 359.467 157.258 359.661 157.274C359.855 157.279 359.952 157.181 359.952 156.978C359.952 156.743 359.823 156.493 359.564 156.226C359.315 155.965 358.899 155.597 358.317 155.122C357.569 154.509 356.945 153.957 356.446 153.466C355.947 152.965 355.513 152.373 355.144 151.69C354.774 150.997 354.59 150.245 354.59 149.434C354.59 148.73 354.76 148.189 355.102 147.81C355.444 147.431 355.952 147.271 356.626 147.33C357.31 147.394 358.137 147.706 359.107 148.266C359.772 148.65 360.423 149.111 361.06 149.65C361.707 150.183 362.275 150.751 362.765 151.354L361.781 153.522C360.83 152.418 359.929 151.621 359.079 151.13C358.238 150.645 357.818 150.637 357.818 151.106C357.818 151.33 357.943 151.573 358.192 151.834C358.442 152.085 358.853 152.439 359.425 152.898C360.164 153.485 360.788 154.031 361.296 154.538C361.804 155.034 362.243 155.623 362.612 156.306C362.991 156.994 363.181 157.743 363.181 158.554C363.181 159.258 363.01 159.799 362.668 160.178C362.326 160.546 361.813 160.703 361.13 160.65C360.455 160.591 359.633 160.282 358.663 159.722ZM369.17 165.788C368.144 165.196 367.22 164.417 366.398 163.452C365.576 162.476 364.93 161.409 364.458 160.252C363.997 159.089 363.766 157.942 363.766 156.812C363.766 155.681 363.997 154.806 364.458 154.188C364.93 153.564 365.576 153.244 366.398 153.228C367.22 153.201 368.144 153.484 369.17 154.076C370.112 154.62 370.952 155.297 371.691 156.108C372.43 156.918 373.04 157.825 373.521 158.828L371.456 159.764C370.855 158.542 370.149 157.697 369.336 157.228C368.652 156.833 368.103 156.772 367.687 157.044C367.271 157.305 367.063 157.862 367.063 158.716C367.063 159.569 367.271 160.372 367.687 161.124C368.103 161.865 368.652 162.433 369.336 162.828C370.149 163.297 370.855 163.268 371.456 162.74L373.521 166.06C373.04 166.508 372.43 166.71 371.691 166.668C370.952 166.625 370.112 166.332 369.17 165.788ZM378.622 168.173L377.735 167.661L377.735 170.477L374.465 168.589L374.465 157.389L379.134 160.085C380.03 160.602 380.811 161.223 381.476 161.949C382.141 162.674 382.654 163.461 383.014 164.309C383.374 165.157 383.555 166.007 383.555 166.861C383.555 167.661 383.397 168.269 383.083 168.685C382.769 169.101 382.317 169.314 381.725 169.325L383.762 173.957L380.271 171.941L378.622 168.173ZM380.257 164.957C380.257 164.541 380.146 164.157 379.924 163.805C379.702 163.442 379.37 163.133 378.926 162.877L377.735 162.189L377.735 164.813L378.926 165.501C379.37 165.757 379.702 165.837 379.924 165.741C380.146 165.634 380.257 165.373 380.257 164.957ZM386.76 167.416L383.92 165.776L383.92 162.848L392.871 168.016L392.871 170.944L390.03 169.304L390.03 177.576L386.76 175.688L386.76 167.416ZM395.962 172.728L393.121 171.088L393.121 168.16L402.072 173.328L402.072 176.256L399.232 174.616L399.232 182.888L395.962 181L395.962 172.728ZM407.872 188.132C406.828 187.53 405.89 186.738 405.059 185.756C404.228 184.775 403.576 183.706 403.105 182.548C402.634 181.38 402.398 180.236 402.398 179.116C402.398 177.996 402.634 177.13 403.105 176.516C403.576 175.892 404.228 175.57 405.059 175.548C405.89 175.527 406.828 175.818 407.872 176.42C408.916 177.023 409.853 177.815 410.685 178.796C411.516 179.778 412.167 180.852 412.638 182.02C413.109 183.178 413.345 184.316 413.345 185.436C413.345 186.556 413.109 187.428 412.638 188.052C412.167 188.666 411.516 188.983 410.685 189.004C409.853 189.026 408.916 188.735 407.872 188.132ZM407.872 185.076C408.278 185.311 408.643 185.41 408.966 185.372C409.299 185.33 409.562 185.156 409.756 184.852C409.95 184.538 410.047 184.098 410.047 183.532C410.047 182.967 409.95 182.42 409.756 181.892C409.562 181.354 409.299 180.876 408.966 180.46C408.643 180.039 408.278 179.711 407.872 179.476C407.465 179.242 407.096 179.146 406.763 179.188C406.44 179.226 406.181 179.402 405.987 179.716C405.793 180.02 405.696 180.455 405.696 181.02C405.696 181.586 405.793 182.138 405.987 182.676C406.181 183.204 406.44 183.679 406.763 184.1C407.096 184.516 407.465 184.842 407.872 185.076ZM416.503 184.587L413.662 182.947L413.662 180.019L422.613 185.187L422.613 188.115L419.773 186.475L419.773 194.748L416.503 192.86L416.503 184.587ZM433.024 191.198L433.024 202.398L429.754 200.51L429.754 196.382L426.733 194.638L426.733 198.766L423.463 196.878L423.463 185.678L426.733 187.566L426.733 191.534L429.754 193.278L429.754 189.31L433.024 191.198ZM442.664 205.116L442.664 207.964L434.599 203.308L434.599 192.108L442.484 196.66L442.484 199.508L437.814 196.812L437.814 198.124L441.916 200.492L441.916 203.212L437.814 200.844L437.814 202.316L442.664 205.116ZM452.583 213.69L452.555 208.57L450.449 211.45L449.008 210.618L446.902 205.482L446.902 210.41L443.923 208.69L443.923 197.49L446.611 199.042L449.77 206.834L452.846 202.642L455.534 204.194L455.562 215.41L452.583 213.69ZM462.228 219.515C461.185 218.913 460.247 218.121 459.416 217.139C458.584 216.158 457.933 215.089 457.462 213.931C456.991 212.763 456.755 211.619 456.755 210.499C456.755 209.379 456.991 208.513 457.462 207.899C457.933 207.275 458.584 206.953 459.416 206.931C460.247 206.91 461.185 207.201 462.228 207.803C463.272 208.406 464.21 209.198 465.041 210.179C465.873 211.161 466.524 212.235 466.995 213.403C467.466 214.561 467.702 215.699 467.702 216.819C467.702 217.939 467.466 218.811 466.995 219.435C466.524 220.049 465.873 220.366 465.041 220.387C464.21 220.409 463.272 220.118 462.228 219.515ZM462.228 216.459C462.635 216.694 463 216.793 463.323 216.755C463.656 216.713 463.919 216.539 464.113 216.235C464.307 215.921 464.404 215.481 464.404 214.915C464.404 214.35 464.307 213.803 464.113 213.275C463.919 212.737 463.656 212.259 463.323 211.843C463 211.422 462.635 211.094 462.228 210.859C461.822 210.625 461.452 210.529 461.12 210.571C460.797 210.609 460.538 210.785 460.344 211.099C460.15 211.403 460.053 211.838 460.053 212.403C460.053 212.969 460.15 213.521 460.344 214.059C460.538 214.587 460.797 215.062 461.12 215.483C461.452 215.899 461.822 216.225 462.228 216.459ZM473.974 226.296C472.93 225.694 471.992 224.902 471.161 223.92C470.33 222.939 469.678 221.87 469.207 220.712C468.736 219.544 468.501 218.4 468.501 217.28C468.501 216.16 468.736 215.294 469.207 214.68C469.678 214.056 470.33 213.734 471.161 213.712C471.992 213.691 472.93 213.982 473.974 214.584C475.018 215.187 475.955 215.979 476.787 216.96C477.618 217.942 478.269 219.016 478.74 220.184C479.212 221.342 479.447 222.48 479.447 223.6C479.447 224.72 479.212 225.592 478.74 226.216C478.269 226.83 477.618 227.147 476.787 227.168C475.955 227.19 475.018 226.899 473.974 226.296ZM473.974 223.24C474.38 223.475 474.745 223.574 475.069 223.536C475.401 223.494 475.664 223.32 475.858 223.016C476.052 222.702 476.149 222.262 476.149 221.696C476.149 221.131 476.052 220.584 475.858 220.056C475.664 219.518 475.401 219.04 475.069 218.624C474.745 218.203 474.38 217.875 473.974 217.64C473.567 217.406 473.198 217.31 472.865 217.352C472.542 217.39 472.283 217.566 472.089 217.88C471.895 218.184 471.798 218.619 471.798 219.184C471.798 219.75 471.895 220.302 472.089 220.84C472.283 221.368 472.542 221.843 472.865 222.264C473.198 222.68 473.567 223.006 473.974 223.24ZM490.195 224.206L490.195 235.406L487.507 233.854L483.821 226.638L483.821 231.726L480.634 229.886L480.634 218.686L483.322 220.238L487.008 227.454L487.008 222.366L490.195 224.206Z" fill="url(#paint8_linear_60_82)" fill-opacity="0.6" style="mix-blend-mode:soft-light"/>
<defs>
<linearGradient id="paint0_linear_60_82" x1="319.271" y1="25.7063" x2="138.194" y2="339.46" gradientUnits="userSpaceOnUse">
<stop stop-color="white"/>
<stop offset="1" stop-color="white" stop-opacity="0"/>
</linearGradient>
<linearGradient id="paint1_linear_60_82" x1="340.473" y1="9.80689" x2="159.396" y2="323.56" gradientUnits="userSpaceOnUse">
<stop stop-color="white"/>
<stop offset="1" stop-color="white" stop-opacity="0"/>
</linearGradient>
<linearGradient id="paint2_linear_60_82" x1="285.498" y1="94.1186" x2="145.715" y2="346.366" gradientUnits="userSpaceOnUse">
<stop stop-color="white" stop-opacity="0"/>
<stop offset="1" stop-color="white"/>
</linearGradient>
<linearGradient id="paint3_linear_60_82" x1="272.346" y1="398.42" x2="194.135" y2="533.937" gradientUnits="userSpaceOnUse">
<stop stop-color="white"/>
<stop offset="1" stop-color="white" stop-opacity="0"/>
</linearGradient>
<linearGradient id="paint4_linear_60_82" x1="378.358" y1="210.808" x2="398.746" y2="376.176" gradientUnits="userSpaceOnUse">
<stop stop-color="white"/>
<stop offset="1" stop-color="white" stop-opacity="0"/>
</linearGradient>
<linearGradient id="paint5_linear_60_82" x1="140.158" y1="59.1295" x2="58.7253" y2="122.896" gradientUnits="userSpaceOnUse">
<stop stop-color="white"/>
<stop offset="1" stop-color="white" stop-opacity="0"/>
</linearGradient>
<linearGradient id="paint6_linear_60_82" x1="117.088" y1="158.703" x2="95.8461" y2="195.509" gradientUnits="userSpaceOnUse">
<stop stop-color="white"/>
<stop offset="1" stop-color="white" stop-opacity="0"/>
</linearGradient>
<linearGradient id="paint7_linear_60_82" x1="396.898" y1="195.799" x2="375.656" y2="232.605" gradientUnits="userSpaceOnUse">
<stop stop-color="white"/>
<stop offset="1" stop-color="white" stop-opacity="0"/>
</linearGradient>
<linearGradient id="paint8_linear_60_82" x1="491.224" y1="245" x2="510.894" y2="192.348" gradientUnits="userSpaceOnUse">
<stop/>
<stop offset="1" stop-color="white" stop-opacity="0"/>
</linearGradient>
</defs>
</svg>
