<svg width="480" height="699" viewBox="0 0 480 699" fill="none" xmlns="http://www.w3.org/2000/svg">
<path opacity="0.3" d="M185.68 1.13519C190.632 3.77905 194.563 10.2418 194.563 15.5295V157.416L239.607 181.725V328.092C239.607 333.38 235.598 335.51 230.724 332.866C225.772 330.222 221.841 323.759 221.841 318.471V191.273L176.718 167.037V5.90882C176.718 0.621112 180.727 -1.50866 185.68 1.13519Z" fill="url(#paint0_linear_60_88)"/>
<path opacity="0.3" d="M210.206 617.448C215.159 620.091 219.089 617.962 219.089 612.674V506.332L264.134 530.641V461.019C264.134 455.732 260.124 449.269 255.25 446.625C250.298 443.981 246.367 446.111 246.367 451.399V501.852L201.323 477.543V603.053C201.323 608.341 205.332 614.804 210.206 617.448Z" fill="url(#paint1_linear_60_88)"/>
<path opacity="0.3" d="M279.463 105.274C284.415 107.918 288.346 114.38 288.346 119.668V361.067C288.346 366.355 284.337 368.484 279.463 365.841C274.51 363.197 270.58 356.734 270.58 351.446V110.047C270.58 104.76 274.589 102.63 279.463 105.274Z" fill="url(#paint2_linear_60_88)"/>
<path d="M228.994 605.33C228.994 619.871 219.875 626.775 208.634 620.679C197.393 614.657 188.274 597.913 188.274 583.371C188.274 568.83 197.393 561.927 208.634 568.022C219.875 574.044 228.994 590.789 228.994 605.33Z" fill="#FFBF00"/>
<path opacity="0.3" d="M378.591 226.304C373.639 223.66 369.708 225.79 369.708 231.077V302.755L324.664 278.446V366.502C324.664 371.789 328.673 378.252 333.547 380.896C338.5 383.54 342.43 381.41 342.43 376.122V307.235L387.474 331.544V240.698C387.474 235.41 383.465 228.948 378.591 226.304Z" fill="url(#paint3_linear_60_88)"/>
<path d="M398.559 251.64C398.559 266.035 389.519 272.791 378.434 266.843C367.35 260.821 358.31 244.37 358.31 229.976C358.31 215.581 367.272 208.825 378.434 214.773C389.597 220.795 398.559 237.246 398.559 251.64Z" fill="#F2B046"/>
<path opacity="0.3" d="M464.749 618.255C464.749 612.968 460.74 606.505 455.866 603.861L385.902 566.113V511.4L316.41 473.945C311.458 471.301 307.527 473.431 307.527 478.719C307.527 484.006 311.536 490.469 316.41 493.113L368.136 521.02V575.733L455.945 623.029C460.819 625.673 464.749 623.543 464.749 618.255Z" fill="url(#paint4_linear_60_88)"/>
<path opacity="0.3" d="M295.893 697.865C290.94 695.221 287.01 688.758 287.01 683.471V509.417C287.01 504.129 291.019 501.999 295.893 504.643C300.845 507.287 304.776 513.75 304.776 519.037V693.091C304.776 698.379 300.766 700.509 295.893 697.865Z" fill="url(#paint5_linear_60_88)"/>
<path d="M475.598 624.571C475.598 639.112 466.479 646.016 455.238 639.92C443.996 633.898 434.877 617.154 434.877 602.612C434.877 588.071 443.996 581.168 455.238 587.263C466.479 593.286 475.598 610.03 475.598 624.571Z" fill="#F2B046"/>
<path opacity="0.3" d="M40.1704 332.425L168.149 401.459V622.956L40.1704 553.922V332.425Z" fill="url(#paint6_linear_60_88)"/>
<path opacity="0.15" d="M60.4519 473.284L136.705 514.411V523.15L60.4519 482.023V473.284Z" fill="#F3F3F3"/>
<path opacity="0.15" d="M68.3916 494.802L128.844 527.409V536.149L68.3916 503.541V494.802Z" fill="#F3F3F3"/>
<path d="M88.9878 534.24L0 486.209V510.959L89.0665 558.989L88.9878 534.24Z" fill="#FFBF00"/>
<path opacity="0.2" d="M131.91 423.565L112.021 438.253L98.6571 422.243L81.2054 436.343L74.2876 431.643L99.9935 411.447L113.043 427.457L127.429 417.469L131.91 423.565Z" fill="#F3F3F3"/>
<path d="M146.846 423.198C146.846 431.496 141.657 435.389 135.29 431.937C128.922 428.485 123.734 419.012 123.734 410.713C123.734 402.414 128.922 398.522 135.29 401.973C141.657 405.425 146.846 414.972 146.846 423.198Z" fill="#FFBF00"/>
<path d="M87.2584 439.208C87.2584 447.506 82.0701 451.399 75.7026 447.947C69.3351 444.495 64.1467 435.021 64.1467 426.723C64.1467 418.424 69.3351 414.532 75.7026 417.983C82.0701 421.435 87.2584 430.909 87.2584 439.208Z" fill="#FFBF00"/>
<path opacity="0.2" d="M480 477.25L358.31 411.594V470.787L480 536.443V477.25Z" fill="url(#paint7_linear_60_88)"/>
<path opacity="0.15" d="M389.44 442.733L426.073 462.488V469.612L389.44 449.783V442.733Z" fill="#F3F3F3"/>
<path opacity="0.15" d="M389.518 456.98L467.501 498.988V506.185L389.518 464.177V456.98Z" fill="#F3F3F3"/>
<path d="M383.072 444.789C383.072 449.636 380.007 451.986 376.155 449.93C372.303 447.873 369.237 442.219 369.237 437.371C369.237 432.524 372.303 430.174 376.155 432.231C380.007 434.287 383.072 439.942 383.072 444.789Z" fill="#F2B046"/>
<path opacity="0.2" d="M167.756 296.219L46.0662 230.563V289.756L167.756 355.412V296.219Z" fill="url(#paint8_linear_60_88)"/>
<path opacity="0.15" d="M77.1963 261.702L113.829 281.457V288.581L77.1963 268.826V261.702Z" fill="#F3F3F3"/>
<path opacity="0.15" d="M77.2749 275.949L155.257 317.957V325.154L77.2749 283.146V275.949Z" fill="#F3F3F3"/>
<path d="M70.8287 263.758C70.8287 268.605 67.7629 270.955 63.9109 268.899C60.059 266.843 56.9932 261.188 56.9932 256.341C56.9932 251.494 60.059 249.144 63.9109 251.2C67.6843 253.256 70.8287 258.911 70.8287 263.758Z" fill="#F2B046"/>
<path opacity="0.2" d="M328.516 424.887C328.516 460.872 305.955 477.911 278.205 462.929C250.377 447.947 227.894 406.6 227.894 370.614C227.894 334.628 250.455 317.59 278.205 332.572C306.033 347.554 328.516 388.901 328.516 424.887Z" fill="url(#paint9_linear_60_88)"/>
<path fill-rule="evenodd" clip-rule="evenodd" d="M257.802 457.956C283.328 476.38 308.259 465.958 313.488 434.677C318.717 403.396 302.264 363.103 276.738 344.679C251.213 326.255 226.282 336.677 221.053 367.958C215.824 399.239 232.277 439.532 257.802 457.956ZM286.843 394.454C287.422 395.874 288.632 396.627 289.426 396.093C290.099 395.623 290.22 394.376 289.704 393.169C284.806 381.619 279.847 373.909 270.722 367.969C260.983 361.631 251.542 361.652 249.919 375.075C248.486 386.954 256.877 397.773 264.192 407.203C269.845 414.491 274.855 420.95 274.193 426.431C273.459 432.53 267.953 432.543 263.614 429.711C255.438 424.381 251.254 417.443 247.027 407.35C246.514 406.129 245.505 405.355 244.721 405.608C243.859 405.88 243.593 407.251 244.148 408.593C248.907 420.163 254.38 428.199 263.415 434.089C272.551 440.037 284.487 441.742 286.11 428.319C287.516 416.663 279.499 406.232 272.231 396.774C266.202 388.93 260.688 381.755 261.49 375.106C262.068 370.243 267.173 370.184 270.52 372.36C278.495 377.56 282.843 384.631 286.843 394.454ZM282.763 426.144C281.928 431.139 278.967 433.84 275.178 433.939L275.026 433.738C276.568 432.577 277.25 430.05 277.652 427.64C278.882 420.275 272.765 412.57 266.339 404.475C259.229 395.519 251.741 386.086 253.407 376.108C254.165 371.573 256.698 367.881 260.296 367.962L260.355 368.202C259.175 369.791 258.386 371.846 257.984 374.256C256.621 382.416 263.414 391.094 270.256 399.835C277.196 408.7 284.185 417.629 282.763 426.144Z" fill="url(#paint10_linear_60_88)" fill-opacity="0.2"/>
<defs>
<linearGradient id="paint0_linear_60_88" x1="274.958" y1="58.8911" x2="158.68" y2="274.527" gradientUnits="userSpaceOnUse">
<stop stop-color="white"/>
<stop offset="1" stop-color="white" stop-opacity="0"/>
</linearGradient>
<linearGradient id="paint1_linear_60_88" x1="181.655" y1="592.457" x2="255.158" y2="456.147" gradientUnits="userSpaceOnUse">
<stop stop-color="white"/>
<stop offset="1" stop-color="white" stop-opacity="0"/>
</linearGradient>
<linearGradient id="paint2_linear_60_88" x1="335.405" y1="145.011" x2="234.549" y2="332.049" gradientUnits="userSpaceOnUse">
<stop stop-color="white"/>
<stop offset="1" stop-color="white" stop-opacity="0"/>
</linearGradient>
<linearGradient id="paint3_linear_60_88" x1="426.273" y1="191.367" x2="330.197" y2="369.539" gradientUnits="userSpaceOnUse">
<stop stop-color="white"/>
<stop offset="1" stop-color="white" stop-opacity="0"/>
</linearGradient>
<linearGradient id="paint4_linear_60_88" x1="494.074" y1="548.498" x2="316.404" y2="548.477" gradientUnits="userSpaceOnUse">
<stop stop-color="white"/>
<stop offset="1" stop-color="white" stop-opacity="0"/>
</linearGradient>
<linearGradient id="paint5_linear_60_88" x1="255.532" y1="666.488" x2="328.377" y2="531.586" gradientUnits="userSpaceOnUse">
<stop stop-color="white"/>
<stop offset="1" stop-color="white" stop-opacity="0"/>
</linearGradient>
<linearGradient id="paint6_linear_60_88" x1="181.854" y1="351.94" x2="79.4366" y2="541.87" gradientUnits="userSpaceOnUse">
<stop stop-color="white"/>
<stop offset="1" stop-color="white" stop-opacity="0"/>
</linearGradient>
<linearGradient id="paint7_linear_60_88" x1="432.88" y1="451.805" x2="408.136" y2="497.691" gradientUnits="userSpaceOnUse">
<stop stop-color="white"/>
<stop offset="1" stop-color="white" stop-opacity="0"/>
</linearGradient>
<linearGradient id="paint8_linear_60_88" x1="120.636" y1="270.774" x2="95.8922" y2="316.66" gradientUnits="userSpaceOnUse">
<stop stop-color="white"/>
<stop offset="1" stop-color="white" stop-opacity="0"/>
</linearGradient>
<linearGradient id="paint9_linear_60_88" x1="288.312" y1="343.98" x2="268.377" y2="465.494" gradientUnits="userSpaceOnUse">
<stop stop-color="white"/>
<stop offset="1" stop-color="white" stop-opacity="0"/>
</linearGradient>
<linearGradient id="paint10_linear_60_88" x1="276.691" y1="344.644" x2="216.305" y2="427.835" gradientUnits="userSpaceOnUse">
<stop stop-color="white"/>
<stop offset="1" stop-color="white" stop-opacity="0.95"/>
</linearGradient>
</defs>
</svg>
